<svg xmlns="http://www.w3.org/2000/svg" width="512" height="512" viewBox="0 0 512 512" version="1.1">
	<path d="M 100.326 17.030 C 92.253 18.654, 85.724 23.895, 82.301 31.500 C 80.615 35.245, 80.483 41.402, 80.227 128 L 79.954 220.500 58.014 242.500 C 43.728 256.825, 35.452 265.895, 34.293 268.500 C 32.711 272.053, 32.456 277.023, 32.006 313 C 31.419 360.015, 32.370 355.718, 19.650 368.781 L 11.585 377.061 16.864 382.281 L 22.143 387.500 31.228 378 C 41.673 367.077, 45.711 359.745, 47.065 349.242 C 47.543 345.534, 47.949 326.963, 47.967 307.973 L 48 273.447 72.796 248.723 L 97.592 224 103.719 224 C 108.870 224, 110.342 224.417, 112.959 226.619 C 118.610 231.374, 120.454 238.046, 117.942 244.653 C 117.360 246.184, 109.320 255.101, 100.077 264.468 C 87.737 276.972, 82.901 282.563, 81.885 285.500 C 79.863 291.339, 79.851 393.661, 81.871 399.381 C 83.740 404.673, 89.569 410.892, 95 413.389 C 99.047 415.250, 102 415.511, 124.349 415.979 L 149.198 416.500 142.658 422.776 C 134.351 430.749, 131.334 431.995, 120.282 432.020 C 115.452 432.031, 108.350 432.489, 104.500 433.039 C 91.650 434.874, 89.075 436.747, 60.744 464.864 L 34.989 490.426 40.214 495.717 L 45.440 501.009 70.470 476.055 C 86.761 459.813, 96.798 450.559, 99.218 449.550 C 101.600 448.557, 106.092 447.993, 111.718 447.980 C 132.894 447.932, 140.987 444.936, 154.112 432.282 L 162.774 423.933 167.815 430.216 C 192.710 461.247, 230.174 483.949, 269.689 491.950 C 293.246 496.720, 330.709 496.729, 354.205 491.971 C 415.635 479.532, 466.577 434.452, 486.388 375 C 493.255 354.391, 494.439 346.308, 494.439 320 C 494.439 299.293, 494.168 295.252, 492.163 286 C 487.020 262.275, 476.323 237.500, 463.234 219 C 454.588 206.781, 433.219 185.412, 421 176.766 C 410.077 169.038, 389.413 158.425, 376.921 154.128 C 363.330 149.453, 345.701 145.896, 332.500 145.165 L 320.500 144.500 320 90 C 319.514 37.059, 319.439 35.371, 317.376 31 C 314.813 25.571, 309.913 20.737, 304.500 18.301 C 300.743 16.609, 294.544 16.491, 202.500 16.345 C 148.600 16.260, 102.622 16.569, 100.326 17.030 M 376 36 L 376 48 364 48 L 352 48 352 56 L 352 64 364 64 L 376 64 376 76 L 376 88 384 88 L 392 88 392 76 L 392 64 404 64 L 416 64 416 56 L 416 48 404 48 L 392 48 392 36 L 392 24 384 24 L 376 24 376 36 M 98.026 33.974 C 96.023 35.977, 96 36.965, 95.998 122.750 L 95.996 209.500 102.485 209.165 C 110.892 208.732, 117.509 210.936, 123.421 216.139 L 128 220.170 128 182.085 L 128 144 216 144 L 304 144 304 90 C 304 37.103, 303.959 35.959, 301.974 33.974 C 300.091 32.091, 298.882 31.968, 284.819 32.224 L 269.690 32.500 267.540 40.500 C 264.902 50.317, 263.035 53.950, 258.786 57.532 C 251.530 63.651, 253.015 63.500, 200 63.500 C 146.985 63.500, 148.470 63.651, 141.214 57.532 C 136.965 53.950, 135.098 50.317, 132.460 40.500 L 130.310 32.500 115.181 32.224 C 101.118 31.968, 99.909 32.091, 98.026 33.974 M 146.012 32.750 C 146.018 33.163, 146.665 35.908, 147.448 38.851 C 150.089 48.775, 145.637 48, 200 48 C 254.363 48, 249.911 48.775, 252.552 38.851 C 253.335 35.908, 253.982 33.163, 253.988 32.750 C 253.995 32.337, 229.700 32, 200 32 C 170.300 32, 146.005 32.337, 146.012 32.750 M 376 56 L 376 64 384 64 L 392 64 392 56 L 392 48 384 48 L 376 48 376 56 M 125.123 80.940 C 117.232 82.948, 113.168 88.611, 112.314 98.789 C 110.677 118.315, 115.869 126.435, 130.789 127.686 C 144.859 128.865, 153.214 126.221, 157.248 119.314 C 161.082 112.751, 160.741 93.880, 156.681 87.855 C 152.945 82.310, 149.007 80.723, 138.138 80.383 C 132.837 80.217, 126.980 80.468, 125.123 80.940 M 189.123 80.940 C 181.232 82.948, 177.168 88.611, 176.314 98.789 C 174.677 118.315, 179.869 126.435, 194.789 127.686 C 208.859 128.865, 217.214 126.221, 221.248 119.314 C 225.082 112.751, 224.741 93.880, 220.681 87.855 C 216.945 82.310, 213.007 80.723, 202.138 80.383 C 196.837 80.217, 190.980 80.468, 189.123 80.940 M 253.123 80.940 C 245.232 82.948, 241.168 88.611, 240.314 98.789 C 238.677 118.315, 243.869 126.435, 258.789 127.686 C 272.859 128.865, 281.214 126.221, 285.248 119.314 C 289.082 112.751, 288.741 93.880, 284.681 87.855 C 280.945 82.310, 277.007 80.723, 266.138 80.383 C 260.837 80.217, 254.980 80.468, 253.123 80.940 M 448 100 L 448 112 436 112 L 424 112 424 120 L 424 128 436 128 L 448 128 448 140 L 448 152 456 152 L 464 152 464 140 L 464 128 476 128 L 488 128 488 120 L 488 112 476 112 L 464 112 464 100 L 464 88 456 88 L 448 88 448 100 M 128 104 L 128 112 136.500 112 L 145 112 145 108.640 C 145 106.791, 144.714 103.191, 144.364 100.640 L 143.728 96 135.864 96 L 128 96 128 104 M 192 104 L 192 112 200.500 112 L 209 112 209 108.640 C 209 106.791, 208.714 103.191, 208.364 100.640 L 207.728 96 199.864 96 L 192 96 192 104 M 256 104 L 256 112 264.500 112 L 273 112 273 108.640 C 273 106.791, 272.714 103.191, 272.364 100.640 L 271.728 96 263.864 96 L 256 96 256 104 M 448 120 L 448 128 456 128 L 464 128 464 120 L 464 112 456 112 L 448 112 448 120 M 144.268 252.214 C 144.610 343.292, 144.643 344.618, 146.814 353.500 C 155.552 389.263, 172.294 417.749, 197.818 440.281 C 219.912 459.785, 247.575 473.055, 276.419 477.986 C 293.163 480.849, 330.668 480.878, 347.261 478.041 C 414.227 466.592, 466.646 414.056, 478.107 346.903 C 479.940 336.166, 480.154 331.880, 479.703 315 C 479.130 293.592, 477.327 283.374, 470.969 265.500 C 459.801 234.102, 437.696 205.795, 409.547 186.844 C 393.162 175.812, 376.422 168.558, 355 163.206 L 344.500 160.583 244.211 160.255 L 143.922 159.927 144.268 252.214 M 228.326 193.026 C 222.463 194.211, 218.904 196.257, 214.796 200.805 C 208.181 208.127, 208.500 202.484, 208.500 312 C 208.500 422.244, 208.120 415.920, 215.211 423.613 C 222.827 431.875, 218.601 431.500, 304 431.500 C 387.271 431.500, 383.949 431.742, 391.291 425.129 C 398.603 418.543, 399.390 415.435, 399.800 391.500 L 400.159 370.500 421.521 349 C 444.849 325.521, 446.947 322.552, 446.968 313 C 446.998 299.421, 436.595 289, 423.010 289 C 415.742 289, 410.432 291.344, 404.307 297.257 L 400.114 301.304 399.807 256.402 C 399.529 215.709, 399.331 211.125, 397.699 207.500 C 395.263 202.087, 390.429 197.187, 385 194.624 C 380.549 192.523, 379.695 192.498, 306.500 192.341 C 265.800 192.254, 230.622 192.562, 228.326 193.026 M 226 210 C 224.121 211.879, 224 213.333, 224 234 L 224 256 304 256 L 384 256 384 234 C 384 213.333, 383.879 211.879, 382 210 C 380.035 208.035, 378.667 208, 304 208 C 229.333 208, 227.965 208.035, 226 210 M 264 232 L 264 240 304 240 L 344 240 344 232 L 344 224 304 224 L 264 224 264 232 M 111.750 273.582 L 96 289.665 96 342.832 C 96 394.667, 96.050 396.050, 98 398 C 99.889 399.889, 101.333 400, 124.017 400 L 148.034 400 145.640 395.250 C 142.078 388.180, 136.446 372.610, 134.048 363.202 C 129.680 346.066, 128.803 336.093, 128.139 296 L 127.500 257.500 111.750 273.582 M 224 342 C 224 410.667, 224.038 412.038, 226 414 C 227.965 415.965, 229.333 416, 304 416 C 378.667 416, 380.035 415.965, 382 414 C 383.790 412.210, 384 410.667, 384 399.277 L 384 386.554 377.225 393.277 L 370.450 400 353.225 400 L 336 400 336 382.742 L 336 365.484 360 341.500 L 384 317.516 384 294.758 L 384 272 304 272 L 224 272 224 342 M 240 296 L 240 304 304 304 L 368 304 368 296 L 368 288 304 288 L 240 288 240 296 M 414.711 307.958 L 410.500 311.917 417.292 318.708 L 424.083 325.500 428.042 321.289 C 432.981 316.034, 433.546 310.455, 429.545 306.455 C 425.545 302.454, 419.966 303.019, 414.711 307.958 M 240 328 L 240 336 292 336 L 344 336 344 328 L 344 320 292 320 L 240 320 240 328 M 375.742 346.758 L 352 370.515 352 377.258 L 352 384 358.758 384 L 365.516 384 389.489 360.011 L 413.463 336.021 407.010 329.511 C 403.461 325.930, 400.316 323, 400.021 323 C 399.726 323, 388.800 333.691, 375.742 346.758 M 240 360 L 240 368 280 368 L 320 368 320 360 L 320 352 280 352 L 240 352 240 360 M 240 392 L 240 400 280 400 L 320 400 320 392 L 320 384 280 384 L 240 384 240 392" stroke="none" fill="#fafafa" fill-rule="evenodd"/>
</svg>